<?xml version="1.0" encoding="UTF-8"?>
<svg width="24px" height="24px" viewBox="0 0 24 24" version="1.1" xmlns="http://www.w3.org/2000/svg" xmlns:xlink="http://www.w3.org/1999/xlink">
    <!-- Generator: Sketch 55.2 (78181) - https://sketchapp.com -->
    <title>icon/24/iconYoutube/Black</title>
    <desc>Created with Sketch.</desc>
    <g id="icon/24/iconYoutube/Black" stroke="none" stroke-width="1" fill="none" fill-rule="evenodd">
        <rect id="boundingBox" fill="#FFFFFF" opacity="0" x="0" y="0" width="24" height="24"></rect>
        <g id="icon" transform="translate(3.000000, 6.000000)" fill="#222222">
            <path d="M17.6238409,1.87383871 C18,3.21067742 18,6 18,6 C18,6 18,8.78922581 17.6238409,10.1262581 C17.4168409,10.8637742 16.8069886,11.4446129 16.032375,11.6418387 C14.6287841,12 9,12 9,12 C9,12 3.37121591,12 1.96752273,11.6418387 C1.19301136,11.4446129 0.583056818,10.8637742 0.376056818,10.1262581 C0,8.78922581 0,6 0,6 C0,6 0,3.21067742 0.376056818,1.87383871 C0.583056818,1.13622581 1.19301136,0.555387097 1.96752273,0.358258065 C3.37121591,-8.8817842e-16 9,-8.8817842e-16 9,-8.8817842e-16 C9,-8.8817842e-16 14.6287841,-8.8817842e-16 16.032375,0.358258065 C16.8069886,0.555387097 17.4168409,1.13622581 17.6238409,1.87383871 Z M7.15906023,8.53249355 L11.8636057,6.00010645 L7.15906023,3.46752581 L7.15906023,8.53249355 Z" id="Combined-Shape"></path>
        </g>
    </g>
</svg>