<?xml version="1.0" encoding="UTF-8"?>
<svg width="24px" height="24px" viewBox="0 0 24 24" version="1.1" xmlns="http://www.w3.org/2000/svg" xmlns:xlink="http://www.w3.org/1999/xlink">
    <!-- Generator: Sketch 55.2 (78181) - https://sketchapp.com -->
    <title>icon/24/iconSettings/Black</title>
    <desc>Created with Sketch.</desc>
    <g id="icon/24/iconSettings/Black" stroke="none" stroke-width="1" fill="none" fill-rule="evenodd">
        <polygon id="boundingBox" fill="#FFFFFF" opacity="0" points="24 0 0 0 0 24 24 24 24 0"></polygon>
        <g id="icon" stroke="#222222" stroke-linecap="round" stroke-linejoin="round">
            <circle id="Oval" cx="12" cy="12" r="3"></circle>
            <path d="M8.65141562,5.85137913 C9.08218955,5.61627898 9.54039436,5.42512977 10.0200035,5.28395803 C10.0068199,5.19120234 10,5.09639761 10,5 C10,3.8954305 10.8954305,3 12,3 C13.1045695,3 14,3.8954305 14,5 C14,5.09639761 13.9931801,5.19120234 13.9799965,5.28395803 C14.4596056,5.42512977 14.9178104,5.61627898 15.3485844,5.85137913 C15.4049306,5.77632203 15.4672471,5.70432577 15.5355339,5.63603897 C16.3165825,4.85499039 17.5829124,4.85499039 18.363961,5.63603897 C19.1450096,6.41708755 19.1450096,7.68341751 18.363961,8.46446609 C18.2956742,8.53275289 18.223678,8.5950694 18.1486209,8.65141562 C18.383721,9.08218955 18.5748702,9.54039436 18.716042,10.0200035 C18.8087977,10.0068199 18.9036024,10 19,10 C20.1045695,10 21,10.8954305 21,12 C21,13.1045695 20.1045695,14 19,14 C18.9036024,14 18.8087977,13.9931801 18.716042,13.9799965 C18.5748702,14.4596056 18.383721,14.9178104 18.1486209,15.3485844 C18.223678,15.4049306 18.2956742,15.4672471 18.363961,15.5355339 C19.1450096,16.3165825 19.1450096,17.5829124 18.363961,18.363961 C17.5829124,19.1450096 16.3165825,19.1450096 15.5355339,18.363961 C15.4672471,18.2956742 15.4049306,18.223678 15.3485844,18.1486209 C14.9178104,18.383721 14.4596056,18.5748702 13.9799965,18.716042 C13.9931801,18.8087977 14,18.9036024 14,19 C14,20.1045695 13.1045695,21 12,21 C10.8954305,21 10,20.1045695 10,19 C10,18.9036024 10.0068199,18.8087977 10.0200035,18.716042 C9.54039436,18.5748702 9.08218955,18.383721 8.65141562,18.1486209 C8.5950694,18.223678 8.53275289,18.2956742 8.46446609,18.363961 C7.68341751,19.1450096 6.41708755,19.1450096 5.63603897,18.363961 C4.85499039,17.5829124 4.85499039,16.3165825 5.63603897,15.5355339 C5.70432577,15.4672471 5.77632203,15.4049306 5.85137913,15.3485844 C5.61627898,14.9178104 5.42512977,14.4596056 5.28395803,13.9799965 C5.19120234,13.9931801 5.09639761,14 5,14 C3.8954305,14 3,13.1045695 3,12 C3,10.8954305 3.8954305,10 5,10 C5.09639761,10 5.19120234,10.0068199 5.28395803,10.0200035 C5.42512977,9.54039436 5.61627898,9.08218955 5.85137913,8.65141562 C5.77632203,8.5950694 5.70432577,8.53275289 5.63603897,8.46446609 C4.85499039,7.68341751 4.85499039,6.41708755 5.63603897,5.63603897 C6.41708755,4.85499039 7.68341751,4.85499039 8.46446609,5.63603897 C8.53275289,5.70432577 8.5950694,5.77632203 8.65141562,5.85137913 Z" id="Combined-Shape" transform="translate(12.000000, 12.000000) rotate(22.000000) translate(-12.000000, -12.000000) "></path>
        </g>
    </g>
</svg>