<?xml version="1.0" encoding="UTF-8"?>
<svg width="24px" height="24px" viewBox="0 0 24 24" version="1.1" xmlns="http://www.w3.org/2000/svg" xmlns:xlink="http://www.w3.org/1999/xlink">
    <!-- Generator: Sketch 55.2 (78181) - https://sketchapp.com -->
    <title>icon/24/iconTrash/Black</title>
    <desc>Created with Sketch.</desc>
    <g id="icon/24/iconTrash/Black" stroke="none" stroke-width="1" fill="none" fill-rule="evenodd">
        <rect id="boundingBox" fill="#FFFFFF" opacity="0" x="0" y="0" width="24" height="24"></rect>
        <g id="icon" transform="translate(6.000000, 4.000000)" stroke="#222222" stroke-linecap="round" stroke-linejoin="round">
            <path d="M1,5 L11,5 L11,15 C11,15.5522847 10.5522847,16 10,16 L2,16 C1.44771525,16 1,15.5522847 1,15 L1,5 Z" id="Rectangle"></path>
            <polygon id="Rectangle" points="1.63202785e-14 2 12 2 12 5 1.64868119e-14 5"></polygon>
            <path d="M3,2 L3,1 C3,0.44771525 3.44771525,1.01453063e-16 4,0 L8,0 C8.55228475,-1.01453063e-16 9,0.44771525 9,1 L9,2" id="Path"></path>
            <path d="M4,8 L4,13" id="Path"></path>
            <path d="M6,8 L6,13" id="Path"></path>
            <path d="M8,8 L8,13" id="Path"></path>
        </g>
    </g>
</svg>